<svg width="228" height="140" viewBox="0 0 228 140" fill="none" preserveAspectRatio="none" xmlns="http://www.w3.org/2000/svg">
<g clip-path="url(#clip0_1918_304)">
<rect opacity="0.1" width="228" height="140" fill="var(--theme-primary)"/>
<g clip-path="url(#clip1_1918_304)">
<path d="M0 82L228 140H0V82Z" fill="var(--theme-primary)"/>
<path opacity="0.4" d="M193.5 64.5L98.5 36L33.5 90.5L90.5 105L193.5 64.5Z" fill="var(--theme-primary)"/>
<path opacity="0.7" d="M90.5 105L228 51V140L90.5 105Z" fill="var(--theme-primary)"/>
<path opacity="0.6" d="M98.5 36L0 74.9118V82L33.5 90.5L98.5 36Z" fill="var(--theme-primary)"/>
</g>
<path d="M220 51.5363C217.943 46.2275 214.209 41.6787 209.327 38.5345C204.445 35.3903 198.662 33.8102 192.798 34.0182C186.935 34.2262 181.287 36.2117 176.657 39.6933C172.027 43.175 168.648 47.9761 167 53.4163L193.824 61L220 51.5363Z" fill="var(--theme-secondary)"/>
</g>
<defs>
<clipPath id="clip0_1918_304">
<rect width="228" height="140" opacity="0.1" fill="var(--theme-primary)" />
</clipPath>
<clipPath id="clip1_1918_304">
<rect width="228" height="104" opacity="0.1" fill="var(--theme-primary)" transform="translate(0 36)"/>
</clipPath>
</defs>
</svg>
