<?xml version="1.0" encoding="UTF-8"?>
<svg id="Layer_1" xmlns="http://www.w3.org/2000/svg" version="1.1" viewBox="0 0 192 192">
  <!-- Generator: Adobe Illustrator 30.1.0, SVG Export Plug-In . SVG Version: 2.1.1 Build 136)  -->
  <defs>
    <style>
      .st0 {
        fill: #5d7a6c;
      }

      .st2 {
        fill: #0e233f;
      }
    </style>
  </defs>
  <g>
    <path class="st2" d="M106.4,55.8c8.5,12.8,14.8,27.5,22.9,40.7l-32,60.9.4-114.6,8.7,13Z"/>
    <g>
      <path class="st0" d="M129.3,96.5c-8.2-13.2-14.4-27.9-22.9-40.7L139.8,7.5h40.8c0,0-51.2,89-51.2,89Z"/>
      <path class="st0" d="M83.7,55.6c-6.7,13.7-15,26.7-22.9,39.8L9.6,6.3h41s33.1,49.3,33.1,49.3Z"/>
    </g>
    <path class="st2" d="M60.8,95.4c7.9-13.1,16.1-26.1,22.9-39.8s6.1-8.3,8.8-12.9v113.9c0,0-31.7-61.2-31.7-61.2Z"/>
    <g>
      <polygon class="st2" points="49.3 185.3 8.5 185.1 57.1 99.9 79 141.4 49.3 185.3"/>
      <polygon class="st2" points="141.4 185.5 111.5 141.6 133.5 100.3 182.1 185.1 141.4 185.5"/>
    </g>
  </g>
</svg>